<svg width="471" height="70" viewBox="0 0 471 70" fill="none" xmlns="http://www.w3.org/2000/svg">
<path d="M212.988 3.14556L102.185 2.5694C102.185 2.5694 74.6902 7.18137 84.1276 50.4202C84.1276 50.4202 75.9201 51.5725 59.0951 30.8173C59.0951 30.8173 50.8876 18.7099 40.2176 26.2054C40.2176 26.2054 36.5251 5.45015 53.7601 2.56663L5.39234e-06 1.99048C5.39234e-06 1.99048 8.61746 26.2054 41.4475 49.8413C41.4475 49.8413 61.145 64.8323 87.4101 68.8653C87.4101 68.8653 126.805 75.2057 156.353 57.9102C156.353 57.9102 190.825 42.3431 212.985 3.14001L212.988 3.14556Z" fill="black"/>
<path d="M62.9921 9.30981L56.2906 9.9463C56.2906 9.9463 55.3651 12.1684 59.0643 12.8049C59.0643 12.8049 61.1439 12.4866 62.9921 9.30981Z" fill="#333339"/>
<path d="M213.635 0.000634541C213.928 -0.09622 209.46 10.9258 204.116 11.6592C182.943 14.562 156.458 11.2496 144.386 11.2662C143.235 11.2662 120.509 10.6574 120.507 10.7294C120.483 11.518 193.408 14.9024 199.352 15.157C199.352 15.157 203.028 15.6856 207.324 14.0197C208.777 13.4579 210.429 10.8456 210.818 10.2451C213.232 6.5231 213.234 0.133466 213.632 0.00340452L213.635 0.000634541Z" fill="white"/>
<path d="M206.041 12.9392C206.29 12.8612 202.657 21.7363 198.112 22.329C180.135 24.6811 157.466 22.0482 147.176 22.0732C146.193 22.0732 126.142 20.7256 126.142 20.7848C126.134 21.4181 189.49 24.9556 194.562 25.1521C194.562 25.1521 197.25 25.5702 200.888 24.2257C202.117 23.7702 203.485 21.6677 203.807 21.1841C205.806 18.1863 205.706 13.0453 206.041 12.9392Z" fill="white"/>
<path d="M197.715 24.8095C197.917 24.7431 192.597 32.01 188.432 32.7295C173.916 35.2339 158.302 32.5192 149.953 32.5385C149.155 32.5385 132.578 31.4344 132.578 31.4842C132.571 32.021 182.239 34.9129 186.354 35.0817C186.354 35.0817 189.638 34.2847 192.589 33.1446C193.587 32.7599 195.444 29.9567 195.706 29.5471C197.327 27.0123 197.442 24.8981 197.715 24.8095Z" fill="white"/>
<path d="M188.882 34.2182C189.084 34.1518 183.764 41.4187 179.599 42.1382C165.083 44.6425 149.47 41.9279 141.12 41.9472C140.323 41.9472 136.995 41.6733 136.995 41.7231C136.987 42.2599 173.406 44.3215 177.521 44.4903C177.521 44.4903 180.805 43.6934 183.756 42.5533C184.754 42.1686 186.611 39.3654 186.873 38.9558C188.495 36.421 188.609 34.3068 188.882 34.2182Z" fill="white"/>
<path d="M178.425 43.5578C178.628 43.4914 173.936 48.3507 168.104 50.5092C163.428 52.2387 160.57 52.4463 152.517 52.8614C151.722 52.9029 140.525 52.1502 140.567 52.1696C141.801 52.723 163.168 54.6601 167.714 53.4148C167.714 53.4148 171.871 52.4463 173.235 51.201C174.04 50.4649 176.155 48.7049 176.417 48.2954C178.038 45.7606 178.153 43.6464 178.425 43.5578Z" fill="white"/>
<path d="M226.467 46.4C221.547 46.4 216.387 42.76 216.387 35.6C216.387 28.44 221.547 24.8 226.467 24.8C230.267 24.8 232.907 26.88 233.667 28.52H233.787V25.2H238.187V46H233.787V42.68H233.667C232.907 44.32 230.267 46.4 226.467 46.4ZM220.747 35.6C220.747 40.08 223.987 42.4 227.307 42.4C230.667 42.4 233.907 40.08 233.907 35.6C233.907 31.12 230.667 28.8 227.307 28.8C223.987 28.8 220.747 31.12 220.747 35.6ZM242.583 46V17.6H246.983V46H242.583ZM251.372 46V17.6H255.772V46H251.372ZM280.961 46H276.561V42.68H276.441C275.681 44.32 273.041 46.4 269.241 46.4C264.321 46.4 259.161 42.76 259.161 35.6C259.161 28.44 264.321 24.8 269.241 24.8C273.041 24.8 275.681 26.88 276.441 28.52H276.561V17.6H280.961V46ZM263.521 35.6C263.521 40.08 266.761 42.4 270.081 42.4C273.441 42.4 276.681 40.08 276.681 35.6C276.681 31.12 273.441 28.8 270.081 28.8C266.761 28.8 263.521 31.12 263.521 35.6ZM294.436 46.4C289.516 46.4 284.356 42.76 284.356 35.6C284.356 28.44 289.516 24.8 294.436 24.8C298.236 24.8 300.876 26.88 301.636 28.52H301.756V25.2H306.156V46H301.756V42.68H301.636C300.876 44.32 298.236 46.4 294.436 46.4ZM288.716 35.6C288.716 40.08 291.956 42.4 295.276 42.4C298.636 42.4 301.876 40.08 301.876 35.6C301.876 31.12 298.636 28.8 295.276 28.8C291.956 28.8 288.716 31.12 288.716 35.6ZM309.152 46L321.232 29.08H310.312V25.2H328.392L316.312 42.08H327.712V46H309.152ZM340.39 46.4C334.75 46.4 329.63 42.52 329.63 35.6C329.63 28.6 334.79 24.8 340.07 24.8C345.35 24.8 351.11 28.56 350.11 37.28H333.79C334.47 40.88 337.31 42.72 340.87 42.72C343.11 42.72 345.11 42 346.63 40.56L348.71 42.72C346.91 44.96 343.91 46.4 340.39 46.4ZM333.75 34H346.19C345.95 30.4 343.07 28.56 340.11 28.56C337.19 28.56 334.39 30.32 333.75 34ZM354.187 46.4C352.787 46.4 351.627 45.32 351.627 43.8C351.627 42.28 352.787 41.24 354.187 41.24C355.627 41.24 356.787 42.28 356.787 43.8C356.787 45.32 355.627 46.4 354.187 46.4ZM366.755 46.4C362.755 46.4 359.835 44.36 359.195 40.68L362.795 39.68C363.235 41.44 364.555 42.84 366.715 42.84C368.355 42.84 369.955 42 369.955 40.16C369.955 38.84 369.075 38.04 367.075 37.24L364.835 36.4C361.395 35.08 359.955 32.96 359.955 30.52C359.955 27 363.035 24.8 366.795 24.8C370.355 24.8 372.955 26.76 373.675 29.8L370.195 30.72C369.595 29.04 368.435 28.32 366.995 28.32C365.395 28.32 364.275 29.2 364.275 30.56C364.275 31.64 364.955 32.56 366.835 33.24L368.875 34.04C371.755 35.12 374.355 36.6 374.355 40.16C374.355 44.32 370.835 46.4 366.755 46.4ZM384.628 46.24C381.468 46.24 379.228 44.68 379.228 40.96V28.76H376.348V25.2H379.228V19.88H383.668V25.2H387.868V28.76H383.668V40.16C383.668 41.36 384.308 42.28 385.948 42.28C386.428 42.28 387.108 42.2 387.868 41.92V45.4C387.108 46.04 385.748 46.24 384.628 46.24ZM410.49 25.2V46H406.09V42.88C404.97 44.8 402.77 46.4 399.41 46.4C395.13 46.4 391.45 43.72 391.45 37.44V25.2H395.89V36.72C395.89 40.36 397.89 42.4 400.97 42.4C403.97 42.4 406.09 40.36 406.09 36.72V25.2H410.49ZM435.687 46H431.287V42.68H431.167C430.407 44.32 427.767 46.4 423.967 46.4C419.047 46.4 413.887 42.76 413.887 35.6C413.887 28.44 419.047 24.8 423.967 24.8C427.767 24.8 430.407 26.88 431.167 28.52H431.287V17.6H435.687V46ZM418.247 35.6C418.247 40.08 421.487 42.4 424.807 42.4C428.167 42.4 431.407 40.08 431.407 35.6C431.407 31.12 428.167 28.8 424.807 28.8C421.487 28.8 418.247 31.12 418.247 35.6ZM440.083 46V25.2H444.483V46H440.083ZM440.083 21.56V17.6H444.483V21.56H440.083ZM458.752 46.4C453.352 46.4 447.872 42.6 447.872 35.6C447.872 28.6 453.352 24.8 458.752 24.8C464.152 24.8 469.632 28.6 469.632 35.6C469.632 42.6 464.152 46.4 458.752 46.4ZM452.232 35.6C452.232 39.88 455.352 42.36 458.752 42.36C462.152 42.36 465.232 39.88 465.232 35.6C465.232 31.32 462.152 28.84 458.752 28.84C455.352 28.84 452.232 31.32 452.232 35.6Z" fill="black"/>
</svg>
