<svg width="214" height="70" viewBox="0 0 214 70" fill="none" xmlns="http://www.w3.org/2000/svg">
<path d="M212.988 3.13092L102.185 2.55744C102.185 2.55744 74.6902 7.14799 84.1276 50.1862C84.1276 50.1862 75.9201 51.3331 59.0951 30.6742C59.0951 30.6742 50.8876 18.623 40.2176 26.0837C40.2176 26.0837 36.5252 5.42481 53.7601 2.55468L2.06511e-05 1.9812C2.06511e-05 1.9812 8.61747 26.0837 41.4475 49.61C41.4475 49.61 61.145 64.5313 87.4101 68.5456C87.4101 68.5456 126.805 74.8566 156.353 57.6414C156.353 57.6414 190.825 42.1465 212.985 3.1254L212.988 3.13092Z" fill="black"/>
<path d="M62.992 9.26648L56.2905 9.90001C56.2905 9.90001 55.365 12.1118 59.0642 12.7453C59.0642 12.7453 61.1438 12.4286 62.992 9.26648Z" fill="#333339"/>
<path d="M213.635 0.000631595C213.928 -0.0957734 209.46 10.8751 204.116 11.605C182.943 14.4944 156.458 11.1974 144.386 11.2139C143.235 11.2139 120.509 10.6079 120.507 10.6796C120.483 11.4646 193.408 14.8332 199.352 15.0866C199.352 15.0866 203.028 15.6127 207.324 13.9546C208.777 13.3954 210.429 10.7952 210.818 10.1975C213.232 6.49283 213.235 0.132847 213.632 0.00338871L213.635 0.000631595Z" fill="white"/>
<path d="M206.041 12.879C206.29 12.8014 202.657 21.6352 198.112 22.2252C180.135 24.5664 157.466 21.9458 147.176 21.9706C146.193 21.9706 126.142 20.6292 126.142 20.6882C126.134 21.3186 189.49 24.8397 194.562 25.0353C194.562 25.0353 197.25 25.4514 200.888 24.1131C202.117 23.6598 203.485 21.567 203.807 21.0857C205.806 18.1017 205.706 12.9846 206.041 12.879Z" fill="white"/>
<path d="M197.715 24.6942C197.917 24.6281 192.597 31.8612 188.432 32.5774C173.916 35.0701 158.302 32.368 149.953 32.3873C149.155 32.3873 132.578 31.2883 132.578 31.3379C132.571 31.8722 182.239 34.7506 186.354 34.9186C186.354 34.9186 189.638 34.1253 192.589 32.9905C193.587 32.6077 195.444 29.8174 195.706 29.4098C197.327 26.8867 197.442 24.7823 197.715 24.6942Z" fill="white"/>
<path d="M188.882 34.0594C189.084 33.9933 183.764 41.2264 179.6 41.9426C165.083 44.4353 149.47 41.7333 141.12 41.7525C140.323 41.7525 136.995 41.4798 136.995 41.5294C136.987 42.0638 173.406 44.1158 177.521 44.2839C177.521 44.2839 180.805 43.4906 183.756 42.3558C184.754 41.9729 186.611 39.1826 186.874 38.775C188.495 36.2519 188.609 34.1476 188.882 34.0594Z" fill="white"/>
<path d="M178.425 43.3557C178.628 43.2895 173.936 48.1263 168.104 50.2748C163.428 51.9963 160.57 52.2029 152.517 52.616C151.722 52.6574 140.525 51.9082 140.567 51.9274C141.801 52.4783 163.168 54.4064 167.714 53.1669C167.714 53.1669 171.871 52.2029 173.235 50.9634C174.04 50.2307 176.155 48.4789 176.417 48.0712C178.038 45.5482 178.153 43.4438 178.425 43.3557Z" fill="white"/>
</svg>
